Patient4_TMGait_0pt4_02_right_01_EMG.mot
version=1
nRows=19
nColumns=33
inDegrees=no
endheader
time	1LAddLong	2LGlutMax	3LGlutMed	4LIliopsoas	5LSemiMemb	6LBicFemLong	7LRecFem	8LVastMed	9LVastLat	10LGasMed	11LTibAnt	12lTibPost	13LPeroneusLong	14LSol	15LExtDigLong	16LFlexDigLong	17RAddLong	18RGlutMax	19RGlutMed	20RIliopsoas	21RSemiMemb	22RBicFemLong	23RRecFem	24RVastMed	25RVastLat	26RGasMed	27RTibAnt	28RTibPost	29RPeroneusLong	30RSol	31RExtDigLong	32RFlexDigLong
1.47	-0.028076	-0.25879	-0.030518	0.001984	-0.049591	0.13351	0.015106	0.002594	-0.10864	0.03479	0.001984	-0.000763	-0.016937	0.017853	-0.006561	0.006561	-0.067444	0.065308	0.0177	0.045471	0.14877	0.13687	-0.28183	0.070343	-0.020905	0.005341	0.030365	-0.000153	-0.016174	-0.025024	-0.002136	-0.01236
1.471	-0.039825	-0.26367	-0.011597	-0.002441	-0.05127	0.1178	0.055389	-0.011902	-0.12207	-0.013275	-0.010071	-0.001221	0.02121	0.030518	-0.001068	-0.007019	-0.055237	0.054779	0.073242	0.019836	0.20676	0.10025	-0.28748	0.11368	0.048828	-0.002289	0.055389	0.009766	0.045471	0.42206	-0.002441	-0.014038
1.472	-0.014954	-0.23956	-0.02182	-0.007629	0.002289	0.093842	0.049591	0.000305	-0.11704	0.031586	-0.014954	0.005035	0.048065	0.034943	-0.007172	-0.009613	-0.006256	0.043182	-0.10162	-0.008698	0.14648	0.16281	-0.26062	0.084076	0.075226	0.007782	0.080109	0.005341	-0.045471	0.41473	-0.002747	-0.009155
1.473	-0.017853	-0.25162	-0.01358	0.008392	-0.001831	0.13245	-0.000916	0.01297	-0.041199	0.014038	-0.003357	-0.004425	0.023499	0.011444	-0.001678	-0.001221	0.005341	0.020905	0.024414	-0.01709	0.099182	0.14557	-0.22858	0.017242	0.026398	-0.000763	0.12589	-0.000458	-0.080719	0.28931	-0.005188	-0.014801
1.474	-0.007782	-0.20371	-0.015411	0.018463	-0.020142	-0.036469	-0.042725	-0.002899	0.035095	0.020294	-0.00824	0.005493	0.033722	-0.004425	-0.00351	-0.008087	-0.00885	0.006714	0.042419	-0.029144	-0.083008	0.014496	-0.22079	-0.002594	0.004425	0.006866	0.063934	-0.009613	-0.000916	0.22278	-0.003052	-0.007172
1.475	0.003967	-0.1738	-0.028534	-0.002899	-0.080109	-0.16373	-0.11063	0.00351	0.074005	-0.000305	-0.007172	0.003815	0.042725	-0.014191	-0.008392	-0.009613	-0.014496	-0.042725	-0.000916	-0.016327	-0.073242	-0.062256	-0.24811	-0.026855	0.018768	0.020294	-0.067902	-0.011444	0.10681	0.242	-0.003967	-0.00946
1.476	0.004425	-0.20798	-0.020447	0.0177	-0.087738	-0.13718	-0.092163	0.005798	0.10849	0.006714	0.006104	0.000916	0.041504	-0.006104	0.016174	0.002136	-0.023041	-0.004272	0.007172	-0.013428	0.066986	-0.1886	-0.20477	-0.018768	-0.010071	0.001984	-0.12634	-0.014801	0.067444	0.12482	-0.005341	0.000763
1.477	0.009918	-0.25299	-0.033264	-0.008392	-0.046082	-0.14572	-0.051117	0.007477	0.18936	0.027771	-0.007172	0.009308	0.017853	0.016327	0.057373	0.002289	-0.009155	-0.032654	0.10498	0.020294	0.10162	-0.17624	-0.24094	-0.039978	-0.00824	0.014343	-0.034637	-0.018921	0.001831	-0.159	-0.006866	-0.000153
1.478	-0.000305	-0.22263	-0.046844	0.012665	0.038452	-0.079956	-0.11353	-0.00061	0.20569	0.030518	-0.00061	0.001526	0.027466	0.031281	0.02533	0.002594	-0.000153	-0.094299	0.02182	0.074158	0.1088	-0.13931	-0.23239	-0.048676	0.008545	-0.027618	0.098877	0.002136	-0.021515	-0.51849	-0.001373	-0.007019
1.479	0.001068	-0.19577	-0.037231	0.012817	0.046997	-0.052338	-0.21347	0.005341	0.20676	0.026398	-0.007477	-0.001068	0.032959	-0.028229	-0.022888	-0.001831	0.019684	-0.066681	-0.11643	0.059052	0.1738	-0.16876	-0.25238	-0.1004	0.001526	-0.10635	0.090942	0.010071	-0.047455	-0.66238	-0.001678	-0.010223
1.48	0.011292	-0.18249	-0.009766	0.007935	0.015411	0.053864	-0.25207	0.003815	0.19745	0.038605	-0.002747	0.003204	0.027161	-0.16907	-0.038147	-0.007172	0.006409	-0.016022	-0.20126	0.034027	0.30579	-0.20783	-0.25116	-0.051727	0.013123	0.009155	0.009308	-0.04837	-0.019226	-0.52383	-0.002441	-0.00885
1.481	0.016632	-0.23819	0.01358	-0.000305	-0.028076	0.15503	-0.2066	0.005341	0.17303	0.028992	0.003967	0.001068	0.050812	-0.10132	-0.015564	-0.005341	0.00885	-0.13611	0.040131	-0.012817	0.18341	-0.19119	-0.27298	0.016022	0.010681	0.008087	0.007782	0.039063	-0.112	-0.21622	-0.000916	-0.011292
1.482	-0.001373	-0.27786	0.03479	-0.007019	0.002136	0.10849	-0.090942	-0.009766	0.096436	0.005493	0.006714	0.005646	0.053253	-0.055695	-0.016785	-0.005035	-0.010986	-0.15213	0.16052	-0.14648	-0.002899	-0.082245	-0.27802	0.073242	0.009308	0.007172	0.027618	0.006409	-0.13397	0.30045	0.001526	-0.005951
1.483	-0.01236	-0.25574	0.02655	-0.001831	0.053711	-0.1506	-0.048828	0.002136	-0.060883	0.0177	0.011444	0.006256	0.079803	-0.066833	0.00946	0.001526	-0.007477	-0.12741	0.23773	-0.15915	-0.14557	-0.14954	-0.23773	0.067139	0.005646	0.00061	0.053253	-0.014496	0.012817	0.79392	-0.002136	-0.00946
1.484	-0.022278	-0.23819	-0.000153	0.018463	0.003967	-0.15549	-0.059509	-0.000916	-0.15518	0.034485	0.009003	0.004578	0.094299	0.054932	0.024261	0.000305	0.010681	-0.11978	0.026703	-0.18234	0.088501	-0.39276	-0.25757	0.043335	-0.001068	-0.016937	0.052643	0.03418	0.059204	0.48279	-0.002747	-0.014038
1.485	-0.01236	-0.21591	0.003815	0.016785	-0.068054	-0.062408	-0.078583	0.003204	-0.12695	0.007019	-0.038605	0.007477	-0.16769	0.12909	0.045013	-0.001373	0.040588	-0.13779	-0.11215	-0.20767	0.15762	-0.54321	-0.23651	-0.052795	-0.002747	-0.028992	0.061188	-0.024109	-0.042572	-0.17303	-0.004578	-0.019226
1.486	-0.017242	-0.25421	-0.002594	0.016937	-0.11307	-0.005646	-0.012207	0.017242	-0.099487	0.018311	-0.010223	0.000153	-0.34225	0.080109	-0.001373	0.004272	0.024872	-0.18326	-0.25696	-0.08255	-0.038147	-0.38727	-0.23193	-0.03952	-0.01236	-0.042572	0.066833	0.008392	-0.20828	0.005798	-0.003052	-0.012207
1.487	-0.000305	-0.23895	0.006104	0.003357	-0.15564	-0.046234	-0.026245	0.00412	-0.079956	0.014191	-0.005798	0.004425	0.13275	0.053864	-0.029755	0.006256	-0.014191	-0.18356	-0.12787	0.10712	-0.34363	-0.26184	-0.26794	-0.006409	-0.006104	0.006256	0.056458	0.02243	-0.28137	0.026703	-0.007935	-0.010376
1.488	0.039825	-0.24414	0.019531	0.007782	-0.035706	-0.20828	-0.070953	0.015717	-0.028076	0.005341	-0.006866	-0.002594	0.12421	0.1059	-0.025177	-0.002747	-0.032043	-0.17654	0.11124	0.2095	-0.16495	-0.19547	-0.22675	0.026245	-0.015869	0.00412	0.024414	-0.077515	-0.13748	0.21545	-0.002747	-0.004272
